<svg width="68" height="16" viewBox="0 0 68 16" fill="none" xmlns="http://www.w3.org/2000/svg">
<g clip-path="url(#clip0_97_253)">
<path d="M13.6205 9.43712L11.8511 8.43378L12.5324 7.35137C12.6967 7.0811 12.7828 6.78027 12.7832 6.47478V4.75886C12.7846 4.27638 12.6233 3.80406 12.3193 3.39989C12.0152 2.99572 11.5816 2.6773 11.0717 2.48373C10.5617 2.29017 9.99768 2.22987 9.44875 2.31026C8.89982 2.39065 8.38993 2.60822 7.98169 2.93625L8.57973 3.49576C8.86261 3.26908 9.21566 3.11887 9.59559 3.06354C9.97553 3.00821 10.3658 3.05016 10.7187 3.18425C11.0715 3.31834 11.3715 3.53875 11.5819 3.81845C11.7923 4.09814 11.904 4.42497 11.9032 4.75886V6.47478C11.9032 6.65267 11.854 6.82796 11.7598 6.98603L10.6897 8.6864L13.1387 10.0752C13.3003 10.1669 13.433 10.2921 13.5246 10.4396C13.6162 10.587 13.6638 10.7519 13.6632 10.9194V12.1945H11.6833V12.9571H14.5431V10.9193C14.544 10.6252 14.4601 10.3356 14.2989 10.0767C14.1378 9.81785 13.9046 9.59799 13.6205 9.43712Z" fill="#9B9B9B"/>
<path d="M9.66053 10.1997L7.89119 9.19636L8.57241 8.11395C8.73672 7.84368 8.82281 7.54285 8.82326 7.23736V5.52144C8.82269 4.86373 8.52112 4.23307 7.9847 3.76781C7.44829 3.30256 6.72084 3.04071 5.96194 3.0397C4.3858 3.0397 3.10354 4.15302 3.10354 5.52144V7.23736C3.10186 7.54271 3.187 7.84372 3.35144 8.11379L4.03637 9.20206L2.27731 10.1997C1.99353 10.3603 1.76052 10.5798 1.59942 10.8383C1.43833 11.0967 1.35425 11.3859 1.35481 11.6797L1.34106 13.7197H10.5832V11.6819C10.5841 11.3878 10.5001 11.0981 10.339 10.8393C10.1779 10.5804 9.94464 10.3606 9.66053 10.1997ZM9.70321 12.9571H2.22614L2.23466 11.6819C2.234 11.5145 2.28163 11.3495 2.37322 11.2021C2.46482 11.0547 2.59748 10.9294 2.75914 10.8378L5.19778 9.4548L4.12393 7.74861C4.03084 7.5903 3.98269 7.41503 3.98349 7.23736V5.52144C3.98349 5.06635 4.19209 4.6299 4.56339 4.30811C4.9347 3.98631 5.43829 3.80553 5.9634 3.80553C6.4885 3.80553 6.99209 3.98631 7.3634 4.30811C7.7347 4.6299 7.9433 5.06635 7.9433 5.52144V7.23736C7.94321 7.41525 7.89404 7.59054 7.79989 7.74861L6.72976 9.44898L9.17873 10.8378C9.34039 10.9295 9.47305 11.0547 9.56464 11.2021C9.65624 11.3496 9.70387 11.5145 9.70321 11.6819V12.9571Z" fill="#9B9B9B"/>
</g>
<path d="M26.899 3.76997H28.719L32.112 13H30.266L29.408 10.699H26.184L25.339 13H23.493L26.899 3.76997ZM29.083 9.43797L27.809 5.62897L26.483 9.43797H29.083ZM32.3489 9.59397C32.3489 8.9353 32.4789 8.34164 32.7389 7.81297C32.9989 7.27564 33.3586 6.85097 33.8179 6.53897C34.2773 6.22697 34.8016 6.07097 35.3909 6.07097C35.8936 6.07097 36.3443 6.19664 36.7429 6.44797C37.1503 6.69064 37.4666 7.00264 37.6919 7.38397V3.50997H39.4339V11.05C39.4339 11.232 39.4643 11.362 39.5249 11.44C39.5856 11.518 39.6896 11.5656 39.8369 11.583V13C39.5336 13.0606 39.2866 13.091 39.0959 13.091C38.7839 13.091 38.5239 13.013 38.3159 12.857C38.1166 12.701 38.0039 12.4973 37.9779 12.246L37.9519 11.817C37.7006 12.2416 37.3583 12.5666 36.9249 12.792C36.5003 13.0173 36.0539 13.13 35.5859 13.13C35.1179 13.13 34.6846 13.039 34.2859 12.857C33.8959 12.675 33.5536 12.4236 33.2589 12.103C32.9729 11.7823 32.7476 11.4096 32.5829 10.985C32.4269 10.5516 32.3489 10.088 32.3489 9.59397ZM37.6919 10.504V8.87897C37.6053 8.62764 37.4666 8.4023 37.2759 8.20297C37.0853 8.00364 36.8729 7.84764 36.6389 7.73497C36.4049 7.61364 36.1709 7.55297 35.9369 7.55297C35.6683 7.55297 35.4256 7.6093 35.2089 7.72197C34.9923 7.83464 34.8016 7.9863 34.6369 8.17697C34.4809 8.36764 34.3596 8.58864 34.2729 8.83997C34.1949 9.0913 34.1559 9.35564 34.1559 9.63297C34.1559 9.9103 34.1993 10.1746 34.2859 10.426C34.3813 10.6686 34.5156 10.881 34.6889 11.063C34.8623 11.245 35.0616 11.388 35.2869 11.492C35.5209 11.596 35.7723 11.648 36.0409 11.648C36.2056 11.648 36.3703 11.622 36.5349 11.57C36.7083 11.5093 36.8686 11.4313 37.0159 11.336C37.1719 11.232 37.3063 11.1106 37.4189 10.972C37.5403 10.8246 37.6313 10.6686 37.6919 10.504ZM51.7258 13H49.9838V9.17797C49.9838 8.64064 49.8885 8.2463 49.6978 7.99497C49.5158 7.73497 49.2602 7.60497 48.9308 7.60497C48.5928 7.60497 48.2678 7.7393 47.9558 8.00797C47.6525 8.26797 47.4358 8.6103 47.3058 9.03497V13H45.5638V9.17797C45.5638 8.63197 45.4685 8.2333 45.2778 7.98197C45.0958 7.73064 44.8402 7.60497 44.5108 7.60497C44.1728 7.60497 43.8478 7.73497 43.5358 7.99497C43.2325 8.25497 43.0158 8.5973 42.8858 9.02197V13H41.1438V6.18797H42.7168V7.44897C42.9768 7.00697 43.3235 6.66897 43.7568 6.43497C44.1902 6.1923 44.6885 6.07097 45.2518 6.07097C45.8152 6.07097 46.2528 6.20964 46.5648 6.48697C46.8855 6.7643 47.0892 7.10664 47.1758 7.51397C47.4532 7.04597 47.8042 6.69064 48.2288 6.44797C48.6622 6.19664 49.1475 6.07097 49.6848 6.07097C50.1095 6.07097 50.4518 6.14897 50.7118 6.30497C50.9805 6.4523 51.1885 6.65597 51.3358 6.91597C51.4832 7.1673 51.5828 7.4533 51.6348 7.77397C51.6955 8.09464 51.7258 8.41964 51.7258 8.74897V13ZM53.2425 13V6.18797H54.9845V13H53.2425ZM53.2425 5.23897V3.50997H54.9845V5.23897H53.2425ZM60.6379 12.649C60.4906 12.7096 60.3129 12.779 60.1049 12.857C59.8969 12.935 59.6716 12.9956 59.4289 13.039C59.1949 13.091 58.9566 13.117 58.7139 13.117C58.3933 13.117 58.0986 13.0606 57.8299 12.948C57.5613 12.8353 57.3446 12.6576 57.1799 12.415C57.0239 12.1636 56.9459 11.8386 56.9459 11.44V7.52697H56.0489V6.18797H56.9459V3.97797H58.6879V6.18797H60.1179V7.52697H58.6879V10.855C58.6966 11.089 58.7616 11.258 58.8829 11.362C59.0043 11.466 59.1559 11.518 59.3379 11.518C59.5199 11.518 59.6976 11.4876 59.8709 11.427C60.0443 11.3663 60.1829 11.3143 60.2869 11.271L60.6379 12.649ZM64.0542 13.13C63.4735 13.13 62.9189 13.0346 62.3902 12.844C61.8615 12.6533 61.4065 12.3716 61.0252 11.999L61.6492 10.868C62.0565 11.1973 62.4552 11.44 62.8452 11.596C63.2439 11.752 63.6252 11.83 63.9892 11.83C64.3272 11.83 64.5959 11.7693 64.7952 11.648C65.0032 11.5266 65.1072 11.3446 65.1072 11.102C65.1072 10.9373 65.0509 10.8116 64.9382 10.725C64.8255 10.6296 64.6609 10.5473 64.4442 10.478C64.2362 10.4086 63.9805 10.3306 63.6772 10.244C63.1745 10.0793 62.7542 9.91897 62.4162 9.76297C62.0782 9.60697 61.8225 9.41197 61.6492 9.17797C61.4845 8.9353 61.4022 8.62764 61.4022 8.25497C61.4022 7.8043 61.5149 7.41864 61.7402 7.09797C61.9742 6.76864 62.2949 6.51297 62.7022 6.33097C63.1182 6.14897 63.6035 6.05797 64.1582 6.05797C64.6435 6.05797 65.1029 6.13597 65.5362 6.29197C65.9695 6.4393 66.3639 6.68197 66.7192 7.01997L66.0172 8.12497C65.6705 7.8563 65.3412 7.6613 65.0292 7.53997C64.7172 7.40997 64.4009 7.34497 64.0802 7.34497C63.8982 7.34497 63.7249 7.36664 63.5602 7.40997C63.4042 7.4533 63.2742 7.52697 63.1702 7.63097C63.0749 7.7263 63.0272 7.86497 63.0272 8.04697C63.0272 8.21164 63.0705 8.34164 63.1572 8.43697C63.2525 8.52364 63.3912 8.60164 63.5732 8.67097C63.7639 8.7403 63.9935 8.8183 64.2622 8.90497C64.8082 9.06097 65.2675 9.2213 65.6402 9.38597C66.0215 9.55064 66.3075 9.7543 66.4982 9.99697C66.6889 10.231 66.7842 10.556 66.7842 10.972C66.7842 11.648 66.5372 12.1766 66.0432 12.558C65.5492 12.9393 64.8862 13.13 64.0542 13.13Z" fill="#9B9B9B"/>
<defs>
<clipPath id="clip0_97_253">
<rect width="14.0793" height="12.2021" fill="white" transform="translate(0.901123 1.89896)"/>
</clipPath>
</defs>
</svg>
