<svg width="56" height="24" viewBox="0 0 56 24" fill="none" xmlns="http://www.w3.org/2000/svg">
<path fill-rule="evenodd" clip-rule="evenodd" d="M3.88135 20.8286C3.88135 20.7053 3.9303 20.5872 4.01744 20.5C4.10459 20.4129 4.22277 20.3639 4.34601 20.3639H18.2859C18.4091 20.3639 18.5273 20.4129 18.6145 20.5C18.7016 20.5872 18.7506 20.7053 18.7506 20.8286C18.7506 20.9518 18.7016 21.07 18.6145 21.1572C18.5273 21.2443 18.4091 21.2932 18.2859 21.2932H4.34601C4.22277 21.2932 4.10459 21.2443 4.01744 21.1572C3.9303 21.07 3.88135 20.9518 3.88135 20.8286Z" fill="#9B9B9B"/>
<path fill-rule="evenodd" clip-rule="evenodd" d="M5.74012 11.0707V20.3639H8.06343V11.0707H5.74012ZM5.27545 10.1413C5.15222 10.1413 5.03403 10.1903 4.94689 10.2774C4.85975 10.3646 4.81079 10.4828 4.81079 10.606V20.8286C4.81079 20.9518 4.85975 21.07 4.94689 21.1571C5.03403 21.2443 5.15222 21.2932 5.27545 21.2932H8.52809C8.65133 21.2932 8.76952 21.2443 8.85666 21.1571C8.9438 21.07 8.99276 20.9518 8.99276 20.8286V10.606C8.99276 10.4828 8.9438 10.3646 8.85666 10.2774C8.76952 10.1903 8.65133 10.1413 8.52809 10.1413H5.27545Z" fill="#9B9B9B"/>
<path fill-rule="evenodd" clip-rule="evenodd" d="M8.06323 2.70673L15.4978 5.4947V12H14.5685V6.13873L8.99256 4.04774V20.3639H12.7099C12.7099 20.4872 12.7588 20.6053 12.846 20.6925C12.9331 20.7796 13.0513 20.8286 13.1745 20.8286H15.4978V21.2932H8.06323V2.70673Z" fill="#9B9B9B"/>
<path d="M9.45728 6.8887H10.3866V7.81803H9.45728V6.8887ZM11.3159 6.8887H12.2453V7.81803H11.3159V6.8887ZM13.1746 6.8887H14.1039V7.81803H13.1746V6.8887ZM9.45728 8.74735H10.3866V9.67668H9.45728V8.74735ZM11.3159 8.74735H12.2453V9.67668H11.3159V8.74735ZM13.1746 8.74735H14.1039V9.67668H13.1746V8.74735ZM9.45728 10.606H10.3866V11.5353H9.45728V10.606ZM11.3159 10.606H12.2453V11.5353H11.3159V10.606ZM13.1746 10.606H14.1039V11.5353H13.1746V10.606ZM9.45728 12.4647H10.3866V13.394H9.45728V12.4647ZM11.3159 12.4647H12.2453V13.394H11.3159V12.4647ZM9.45728 14.3233H10.3866V15.2526H9.45728V14.3233ZM11.3159 14.3233H12.2453V15.2526H11.3159V14.3233ZM9.45728 16.182H10.3866V17.1113H9.45728V16.182ZM11.3159 16.182H12.2453V17.1113H11.3159V16.182ZM9.45728 18.0406H10.3866V18.9699H9.45728V18.0406ZM11.3159 18.0406H12.2453V18.9699H11.3159V18.0406Z" fill="#9B9B9B"/>
<path fill-rule="evenodd" clip-rule="evenodd" d="M13.6393 12.9293V20.3639H16.8919V12.9293H13.6393ZM13.1746 12C13.0514 12 12.9332 12.049 12.8461 12.1361C12.7589 12.2232 12.71 12.3414 12.71 12.4647V20.8286C12.71 20.9518 12.7589 21.07 12.8461 21.1572C12.9332 21.2443 13.0514 21.2933 13.1746 21.2933H17.3566C17.4798 21.2933 17.598 21.2443 17.6852 21.1572C17.7723 21.07 17.8213 20.9518 17.8213 20.8286V12.4647C17.8213 12.3414 17.7723 12.2232 17.6852 12.1361C17.598 12.049 17.4798 12 17.3566 12H13.1746Z" fill="#9B9B9B"/>
<path fill-rule="evenodd" clip-rule="evenodd" d="M15.9625 14.788H14.5685V13.8586H15.9625V14.788ZM15.9625 16.6466H14.5685V15.7173H15.9625V16.6466ZM15.9625 18.5053H14.5685V17.5759H15.9625V18.5053ZM15.9625 20.3639H14.5685V19.4346H15.9625V20.3639ZM7.13392 6.8887V11.0707H6.20459V6.8887H7.13392Z" fill="#9B9B9B"/>
<path d="M31.3185 12.32C31.3185 11.7567 31.4182 11.2063 31.6175 10.669C31.8255 10.123 32.1245 9.629 32.5145 9.187C32.9045 8.73633 33.3812 8.381 33.9445 8.121C34.5079 7.85233 35.1492 7.718 35.8685 7.718C36.7179 7.718 37.4502 7.90433 38.0655 8.277C38.6895 8.64967 39.1532 9.135 39.4565 9.733L38.0785 10.682C37.9225 10.3353 37.7189 10.0623 37.4675 9.863C37.2162 9.655 36.9475 9.512 36.6615 9.434C36.3755 9.34733 36.0939 9.304 35.8165 9.304C35.3659 9.304 34.9715 9.395 34.6335 9.577C34.3042 9.759 34.0269 9.99733 33.8015 10.292C33.5762 10.5867 33.4072 10.916 33.2945 11.28C33.1905 11.644 33.1385 12.008 33.1385 12.372C33.1385 12.7793 33.2035 13.1737 33.3335 13.555C33.4635 13.9277 33.6455 14.2613 33.8795 14.556C34.1222 14.842 34.4082 15.0717 34.7375 15.245C35.0755 15.4097 35.4439 15.492 35.8425 15.492C36.1285 15.492 36.4189 15.4443 36.7135 15.349C37.0082 15.2537 37.2812 15.102 37.5325 14.894C37.7839 14.686 37.9789 14.4173 38.1175 14.088L39.5865 14.933C39.4045 15.3923 39.1055 15.7823 38.6895 16.103C38.2822 16.4237 37.8229 16.6663 37.3115 16.831C36.8002 16.9957 36.2932 17.078 35.7905 17.078C35.1319 17.078 34.5295 16.9437 33.9835 16.675C33.4375 16.3977 32.9652 16.0337 32.5665 15.583C32.1765 15.1237 31.8689 14.6123 31.6435 14.049C31.4269 13.477 31.3185 12.9007 31.3185 12.32ZM40.6206 17V10.188H42.3626V17H40.6206ZM40.6206 9.239V7.51H42.3626V9.239H40.6206ZM48.0161 16.649C47.8688 16.7097 47.6911 16.779 47.4831 16.857C47.2751 16.935 47.0498 16.9957 46.8071 17.039C46.5731 17.091 46.3348 17.117 46.0921 17.117C45.7714 17.117 45.4768 17.0607 45.2081 16.948C44.9394 16.8353 44.7228 16.6577 44.5581 16.415C44.4021 16.1637 44.3241 15.8387 44.3241 15.44V11.527H43.4271V10.188H44.3241V7.978H46.0661V10.188H47.4961V11.527H46.0661V14.855C46.0748 15.089 46.1398 15.258 46.2611 15.362C46.3824 15.466 46.5341 15.518 46.7161 15.518C46.8981 15.518 47.0758 15.4877 47.2491 15.427C47.4224 15.3663 47.5611 15.3143 47.6651 15.271L48.0161 16.649ZM49.041 18.326C49.197 18.3607 49.34 18.391 49.47 18.417C49.6086 18.443 49.7256 18.456 49.821 18.456C49.9856 18.456 50.12 18.4127 50.224 18.326C50.3366 18.248 50.445 18.1007 50.549 17.884C50.653 17.676 50.7613 17.3813 50.874 17L48.183 10.188H49.99L51.823 15.219L53.435 10.188H55.099L52.239 18.352C52.135 18.6553 51.9746 18.9283 51.758 19.171C51.55 19.4223 51.2856 19.6173 50.965 19.756C50.653 19.9033 50.302 19.977 49.912 19.977C49.7733 19.977 49.6346 19.964 49.496 19.938C49.3573 19.9207 49.2056 19.886 49.041 19.834V18.326Z" fill="#9B9B9B"/>
</svg>
