<svg width="54" height="16" viewBox="0 0 54 16" fill="none" xmlns="http://www.w3.org/2000/svg">
<path d="M5.28838 9.19798C5.11865 9.19798 4.97628 9.14047 4.86127 9.02545C4.74625 8.91044 4.68894 8.76827 4.68934 8.59894C4.68934 8.42922 4.74685 8.28685 4.86187 8.17183C4.97688 8.05682 5.11905 7.99951 5.28838 7.99991C5.4581 7.99991 5.60047 8.05742 5.71549 8.17243C5.8305 8.28745 5.88781 8.42962 5.88741 8.59894C5.88741 8.76867 5.8299 8.91104 5.71489 9.02605C5.59987 9.14107 5.4577 9.19838 5.28838 9.19798ZM7.68451 9.19798C7.51478 9.19798 7.37241 9.14047 7.2574 9.02545C7.14238 8.91044 7.08508 8.76827 7.08548 8.59894C7.08548 8.42922 7.14298 8.28685 7.258 8.17183C7.37301 8.05682 7.51518 7.99951 7.68451 7.99991C7.85423 7.99991 7.9966 8.05742 8.11162 8.17243C8.22663 8.28745 8.28394 8.42962 8.28354 8.59894C8.28354 8.76867 8.22603 8.91104 8.11102 9.02605C7.99601 9.14107 7.85383 9.19838 7.68451 9.19798ZM10.0806 9.19798C9.91091 9.19798 9.76854 9.14047 9.65353 9.02545C9.53851 8.91044 9.48121 8.76827 9.48161 8.59894C9.48161 8.42922 9.53911 8.28685 9.65413 8.17183C9.76914 8.05682 9.91131 7.99951 10.0806 7.99991C10.2504 7.99991 10.3927 8.05742 10.5077 8.17243C10.6228 8.28745 10.6801 8.42962 10.6797 8.59894C10.6797 8.76867 10.6222 8.91104 10.5072 9.02605C10.3921 9.14107 10.25 9.19838 10.0806 9.19798ZM2.29321 13.9902V3.20765H4.09031V2.00958H5.28838V3.20765H10.0806V2.00958H11.2787V3.20765H13.0758V13.9902H2.29321ZM3.49128 12.7922H11.8777V6.80185H3.49128V12.7922ZM3.49128 5.60378H11.8777V4.40571H3.49128V5.60378Z" fill="#9B9B9B"/>
<path d="M24.2826 13V3.77H27.6366C28.6419 3.77 29.4826 3.978 30.1586 4.394C30.8346 4.80133 31.3416 5.356 31.6796 6.058C32.0176 6.75133 32.1866 7.52267 32.1866 8.372C32.1866 9.308 32.0002 10.1227 31.6276 10.816C31.2549 11.5093 30.7262 12.0467 30.0416 12.428C29.3656 12.8093 28.5639 13 27.6366 13H24.2826ZM30.3796 8.372C30.3796 7.774 30.2712 7.24967 30.0546 6.799C29.8379 6.33967 29.5259 5.98433 29.1186 5.733C28.7112 5.473 28.2172 5.343 27.6366 5.343H26.0766V11.427H27.6366C28.2259 11.427 28.7242 11.297 29.1316 11.037C29.5389 10.7683 29.8466 10.4043 30.0546 9.945C30.2712 9.477 30.3796 8.95267 30.3796 8.372ZM32.8624 10.985C32.8624 10.543 32.9837 10.1573 33.2264 9.828C33.4777 9.49 33.8244 9.23 34.2664 9.048C34.7084 8.866 35.2154 8.775 35.7874 8.775C36.0734 8.775 36.3637 8.79667 36.6584 8.84C36.953 8.88333 37.2087 8.95267 37.4254 9.048V8.684C37.4254 8.25067 37.2954 7.917 37.0354 7.683C36.784 7.449 36.407 7.332 35.9044 7.332C35.5317 7.332 35.1764 7.397 34.8384 7.527C34.5004 7.657 34.145 7.84767 33.7724 8.099L33.2134 6.955C33.664 6.66033 34.1234 6.43933 34.5914 6.292C35.068 6.14467 35.5664 6.071 36.0864 6.071C37.057 6.071 37.811 6.31367 38.3484 6.799C38.8944 7.28433 39.1674 7.97767 39.1674 8.879V11.05C39.1674 11.232 39.1977 11.362 39.2584 11.44C39.3277 11.518 39.436 11.5657 39.5834 11.583V13C39.4274 13.026 39.2844 13.0477 39.1544 13.065C39.033 13.0823 38.929 13.091 38.8424 13.091C38.4957 13.091 38.2314 13.013 38.0494 12.857C37.876 12.701 37.7677 12.5103 37.7244 12.285L37.6854 11.934C37.3907 12.3153 37.0224 12.61 36.5804 12.818C36.1384 13.026 35.6877 13.13 35.2284 13.13C34.7777 13.13 34.3704 13.039 34.0064 12.857C33.651 12.6663 33.3694 12.4107 33.1614 12.09C32.962 11.7607 32.8624 11.3923 32.8624 10.985ZM37.1004 11.336C37.1957 11.232 37.2737 11.128 37.3344 11.024C37.395 10.92 37.4254 10.8247 37.4254 10.738V10.049C37.2174 9.96233 36.992 9.89733 36.7494 9.854C36.5067 9.802 36.277 9.776 36.0604 9.776C35.6097 9.776 35.237 9.87567 34.9424 10.075C34.6564 10.2657 34.5134 10.5213 34.5134 10.842C34.5134 11.0153 34.561 11.18 34.6564 11.336C34.7517 11.492 34.8904 11.6177 35.0724 11.713C35.2544 11.8083 35.471 11.856 35.7224 11.856C35.9824 11.856 36.238 11.8083 36.4894 11.713C36.7407 11.609 36.9444 11.4833 37.1004 11.336ZM44.8137 12.649C44.6664 12.7097 44.4887 12.779 44.2807 12.857C44.0727 12.935 43.8474 12.9957 43.6047 13.039C43.3707 13.091 43.1324 13.117 42.8897 13.117C42.5691 13.117 42.2744 13.0607 42.0057 12.948C41.7371 12.8353 41.5204 12.6577 41.3557 12.415C41.1997 12.1637 41.1217 11.8387 41.1217 11.44V7.527H40.2247V6.188H41.1217V3.978H42.8637V6.188H44.2937V7.527H42.8637V10.855C42.8724 11.089 42.9374 11.258 43.0587 11.362C43.1801 11.466 43.3317 11.518 43.5137 11.518C43.6957 11.518 43.8734 11.4877 44.0467 11.427C44.2201 11.3663 44.3587 11.3143 44.4627 11.271L44.8137 12.649ZM48.8038 13.13C48.2578 13.13 47.7638 13.039 47.3218 12.857C46.8798 12.6663 46.5028 12.4107 46.1908 12.09C45.8788 11.7607 45.6361 11.388 45.4628 10.972C45.2981 10.5473 45.2158 10.101 45.2158 9.633C45.2158 8.983 45.3588 8.38933 45.6448 7.852C45.9395 7.31467 46.3555 6.88567 46.8928 6.565C47.4388 6.23567 48.0801 6.071 48.8168 6.071C49.5621 6.071 50.1991 6.23567 50.7278 6.565C51.2565 6.88567 51.6595 7.31467 51.9368 7.852C52.2228 8.38067 52.3658 8.95267 52.3658 9.568C52.3658 9.672 52.3615 9.78033 52.3528 9.893C52.3441 9.997 52.3355 10.0837 52.3268 10.153H47.0618C47.0965 10.4997 47.1961 10.803 47.3608 11.063C47.5341 11.323 47.7508 11.5223 48.0108 11.661C48.2795 11.791 48.5655 11.856 48.8688 11.856C49.2155 11.856 49.5405 11.7737 49.8438 11.609C50.1558 11.4357 50.3681 11.2103 50.4808 10.933L51.9758 11.349C51.8111 11.6957 51.5728 12.0033 51.2608 12.272C50.9575 12.5407 50.5978 12.753 50.1818 12.909C49.7658 13.0563 49.3065 13.13 48.8038 13.13ZM47.0228 9.048H50.5848C50.5501 8.70133 50.4505 8.40233 50.2858 8.151C50.1298 7.891 49.9218 7.69167 49.6618 7.553C49.4018 7.40567 49.1115 7.332 48.7908 7.332C48.4788 7.332 48.1928 7.40567 47.9328 7.553C47.6815 7.69167 47.4735 7.891 47.3088 8.151C47.1528 8.40233 47.0575 8.70133 47.0228 9.048Z" fill="#9B9B9B"/>
</svg>
