<svg width="17" height="17" viewBox="0 0 17 17" fill="none" xmlns="http://www.w3.org/2000/svg">
<path d="M4.9585 9.91669C6.13433 9.91669 7.0835 8.96752 7.0835 7.79169C7.0835 6.61585 6.13433 5.66669 4.9585 5.66669C3.78266 5.66669 2.8335 6.61585 2.8335 7.79169C2.8335 8.96752 3.78266 9.91669 4.9585 9.91669ZM4.9585 7.08335C5.34808 7.08335 5.66683 7.4021 5.66683 7.79169C5.66683 8.18127 5.34808 8.50002 4.9585 8.50002C4.56891 8.50002 4.25016 8.18127 4.25016 7.79169C4.25016 7.4021 4.56891 7.08335 4.9585 7.08335ZM13.4585 4.95835H7.79183V10.625H2.12516V3.54169H0.708496V14.1667H2.12516V12.0417H14.8752V14.1667H16.2918V7.79169C16.2918 6.22627 15.0239 4.95835 13.4585 4.95835ZM14.8752 10.625H9.2085V6.37502H13.4585C14.2377 6.37502 14.8752 7.01252 14.8752 7.79169V10.625Z" fill="#1F1F1F"/>
</svg>
