<svg width="42" height="24" viewBox="0 0 42 24" fill="none" xmlns="http://www.w3.org/2000/svg">
<path d="M4.81061 1.01385H40.6101V13.3682H1.40112L4.81061 1.01385Z" fill="#FFB901" stroke="#FFB901" stroke-width="1.00776"/>
<path d="M17.0557 6.85496V10.1602H16.0554V5.01391H16.8527L19.5128 8.40609V5.02116H20.5131V10.1602H19.6795L17.0557 6.85496ZM25.4469 9.28312V10.1602H21.8735V5.01391H25.3817V5.89095H22.8738V7.1304H25.041V7.9422H22.8738V9.28312H25.4469ZM28.278 5.02841H29.2057L29.7928 6.73174L30.3872 5.02841H31.3077L30.4234 7.36959L31.0758 9.00769L32.5327 5.01391H33.6199L31.5614 10.1602H30.6989L29.7928 8.00018L28.8941 10.1602H28.0315L25.9803 5.01391H27.053L28.5172 9.00769L29.155 7.36959L28.278 5.02841Z" fill="white"/>
<path d="M41.1155 13.8476L26.595 13.8476V23.5265L41.1155 13.8476Z" fill="url(#paint0_linear_72_810)"/>
<defs>
<linearGradient id="paint0_linear_72_810" x1="64.7221" y1="-1.26173" x2="26.595" y2="33.1144" gradientUnits="userSpaceOnUse">
<stop/>
<stop offset="1" stop-opacity="0.04"/>
</linearGradient>
</defs>
</svg>
