<svg width="25" height="26" viewBox="0 0 25 26" fill="none" xmlns="http://www.w3.org/2000/svg">
<path d="M12.1441 5.86777C12.3041 5.37528 13.0008 5.37528 13.1609 5.86777L14.419 9.73986C14.4905 9.96011 14.6958 10.1092 14.9274 10.1092H18.9987C19.5166 10.1092 19.7319 10.7719 19.3129 11.0762L16.0191 13.4693C15.8318 13.6055 15.7534 13.8467 15.8249 14.067L17.0831 17.9391C17.2431 18.4316 16.6794 18.8411 16.2605 18.5367L12.9667 16.1436C12.7793 16.0075 12.5256 16.0075 12.3383 16.1436L9.04446 18.5367C8.62552 18.8411 8.06185 18.4316 8.22187 17.9391L9.47999 14.067C9.55155 13.8467 9.47315 13.6055 9.2858 13.4693L5.992 11.0762C5.57306 10.7719 5.78837 10.1092 6.3062 10.1092H10.3776C10.6091 10.1092 10.8144 9.96011 10.886 9.73986L12.1441 5.86777Z" fill="#FFB901"/>
</svg>
