<svg width="39" height="40" viewBox="0 0 39 40" fill="none" xmlns="http://www.w3.org/2000/svg">
<path d="M26.2189 34.428L26.2189 28.9164C24.2284 29.9683 22.0116 30.5411 19.7464 30.579L19.9769 30.7159L26.1523 34.3846L26.1865 34.4049L26.2189 34.428L25.661 35.2116L26.2189 34.428ZM26.2189 34.428L26.2189 34.4281M26.2189 34.428L26.2189 34.4281M26.2189 34.4281L26.1686 35.1304M12.7524 34.428V28.9164C14.7429 29.9683 16.9597 30.5411 19.2248 30.579L18.9943 30.7159L12.819 34.3846L12.7848 34.4049L12.7524 34.428ZM30.0665 16.1525C30.0665 18.9588 28.9517 21.65 26.9674 23.6343C24.9831 25.6186 22.2919 26.7334 19.4856 26.7334C16.6794 26.7334 13.9881 25.6186 12.0038 23.6343C10.0195 21.65 8.90477 18.9588 8.90477 16.1525C8.90477 13.3463 10.0195 10.655 12.0038 8.67073C13.9881 6.68644 16.6794 5.57167 19.4856 5.57167C22.2919 5.57167 24.9831 6.68644 26.9674 8.67073C28.9517 10.655 30.0665 13.3463 30.0665 16.1525Z" stroke="#1F1F1F" stroke-width="1.92379"/>
</svg>
