<svg width="15" height="14" viewBox="0 0 15 14" fill="none" xmlns="http://www.w3.org/2000/svg">
<g clip-path="url(#clip0_113_254)">
<path d="M13.6205 8.43712L11.8511 7.43378L12.5324 6.35137C12.6967 6.0811 12.7828 5.78027 12.7832 5.47478V3.75886C12.7846 3.27638 12.6233 2.80406 12.3193 2.39989C12.0152 1.99572 11.5816 1.6773 11.0717 1.48373C10.5617 1.29017 9.99768 1.22987 9.44875 1.31026C8.89982 1.39065 8.38993 1.60822 7.98169 1.93625L8.57973 2.49576C8.86261 2.26908 9.21566 2.11887 9.59559 2.06354C9.97553 2.00821 10.3658 2.05016 10.7187 2.18425C11.0715 2.31834 11.3715 2.53875 11.5819 2.81845C11.7923 3.09814 11.904 3.42497 11.9032 3.75886V5.47478C11.9032 5.65267 11.854 5.82796 11.7598 5.98603L10.6897 7.6864L13.1387 9.0752C13.3003 9.16689 13.433 9.29214 13.5246 9.43957C13.6162 9.58699 13.6638 9.75192 13.6632 9.91936V11.1945H11.6833V11.9571H14.5431V9.91934C14.544 9.62521 14.4601 9.33556 14.2989 9.07671C14.1378 8.81785 13.9046 8.59799 13.6205 8.43712Z" fill="#9B9B9B"/>
<path d="M9.66053 9.1997L7.89119 8.19636L8.57241 7.11395C8.73672 6.84368 8.82281 6.54285 8.82326 6.23736V4.52144C8.82269 3.86373 8.52112 3.23307 7.9847 2.76781C7.44829 2.30256 6.72084 2.04071 5.96194 2.0397C4.3858 2.0397 3.10354 3.15302 3.10354 4.52144V6.23736C3.10186 6.54271 3.187 6.84372 3.35144 7.11379L4.03637 8.20206L2.27731 9.1997C1.99353 9.36032 1.76052 9.57981 1.59942 9.83826C1.43833 10.0967 1.35425 10.3859 1.35481 10.6797L1.34106 12.7197H10.5832V10.6819C10.5841 10.3878 10.5001 10.0981 10.339 9.83928C10.1779 9.58043 9.94464 9.36057 9.66053 9.1997ZM9.70321 11.9571H2.22614L2.23466 10.6819C2.234 10.5145 2.28163 10.3495 2.37322 10.2021C2.46482 10.0547 2.59748 9.92944 2.75914 9.83775L5.19778 8.4548L4.12393 6.74861C4.03084 6.5903 3.98269 6.41503 3.98349 6.23736V4.52144C3.98349 4.06635 4.19209 3.6299 4.56339 3.30811C4.9347 2.98631 5.43829 2.80553 5.9634 2.80553C6.4885 2.80553 6.99209 2.98631 7.3634 3.30811C7.7347 3.6299 7.9433 4.06635 7.9433 4.52144V6.23736C7.94321 6.41525 7.89404 6.59054 7.79989 6.74861L6.72976 8.44898L9.17873 9.83778C9.34039 9.92947 9.47305 10.0547 9.56464 10.2021C9.65624 10.3496 9.70387 10.5145 9.70321 10.6819V11.9571Z" fill="#9B9B9B"/>
</g>
<defs>
<clipPath id="clip0_113_254">
<rect width="14.0793" height="12.2021" fill="white" transform="translate(0.901123 0.898956)"/>
</clipPath>
</defs>
</svg>
