<svg width="23" height="24" viewBox="0 0 23 24" fill="none" xmlns="http://www.w3.org/2000/svg">
<path fill-rule="evenodd" clip-rule="evenodd" d="M3.88135 20.8286C3.88135 20.7053 3.9303 20.5872 4.01744 20.5C4.10459 20.4129 4.22277 20.3639 4.34601 20.3639H18.2859C18.4091 20.3639 18.5273 20.4129 18.6145 20.5C18.7016 20.5872 18.7506 20.7053 18.7506 20.8286C18.7506 20.9518 18.7016 21.07 18.6145 21.1572C18.5273 21.2443 18.4091 21.2932 18.2859 21.2932H4.34601C4.22277 21.2932 4.10459 21.2443 4.01744 21.1572C3.9303 21.07 3.88135 20.9518 3.88135 20.8286Z" fill="#9B9B9B"/>
<path fill-rule="evenodd" clip-rule="evenodd" d="M5.74012 11.0707V20.3639H8.06343V11.0707H5.74012ZM5.27545 10.1413C5.15222 10.1413 5.03403 10.1903 4.94689 10.2774C4.85975 10.3646 4.81079 10.4828 4.81079 10.606V20.8286C4.81079 20.9518 4.85975 21.07 4.94689 21.1571C5.03403 21.2443 5.15222 21.2932 5.27545 21.2932H8.52809C8.65133 21.2932 8.76952 21.2443 8.85666 21.1571C8.9438 21.07 8.99276 20.9518 8.99276 20.8286V10.606C8.99276 10.4828 8.9438 10.3646 8.85666 10.2774C8.76952 10.1903 8.65133 10.1413 8.52809 10.1413H5.27545Z" fill="#9B9B9B"/>
<path fill-rule="evenodd" clip-rule="evenodd" d="M8.06323 2.70673L15.4978 5.4947V12H14.5685V6.13873L8.99256 4.04774V20.3639H12.7099C12.7099 20.4872 12.7588 20.6053 12.846 20.6925C12.9331 20.7796 13.0513 20.8286 13.1745 20.8286H15.4978V21.2932H8.06323V2.70673Z" fill="#9B9B9B"/>
<path d="M9.45728 6.8887H10.3866V7.81803H9.45728V6.8887ZM11.3159 6.8887H12.2453V7.81803H11.3159V6.8887ZM13.1746 6.8887H14.1039V7.81803H13.1746V6.8887ZM9.45728 8.74735H10.3866V9.67668H9.45728V8.74735ZM11.3159 8.74735H12.2453V9.67668H11.3159V8.74735ZM13.1746 8.74735H14.1039V9.67668H13.1746V8.74735ZM9.45728 10.606H10.3866V11.5353H9.45728V10.606ZM11.3159 10.606H12.2453V11.5353H11.3159V10.606ZM13.1746 10.606H14.1039V11.5353H13.1746V10.606ZM9.45728 12.4647H10.3866V13.394H9.45728V12.4647ZM11.3159 12.4647H12.2453V13.394H11.3159V12.4647ZM9.45728 14.3233H10.3866V15.2526H9.45728V14.3233ZM11.3159 14.3233H12.2453V15.2526H11.3159V14.3233ZM9.45728 16.182H10.3866V17.1113H9.45728V16.182ZM11.3159 16.182H12.2453V17.1113H11.3159V16.182ZM9.45728 18.0406H10.3866V18.9699H9.45728V18.0406ZM11.3159 18.0406H12.2453V18.9699H11.3159V18.0406Z" fill="#9B9B9B"/>
<path fill-rule="evenodd" clip-rule="evenodd" d="M13.6393 12.9293V20.3639H16.8919V12.9293H13.6393ZM13.1746 12C13.0514 12 12.9332 12.049 12.8461 12.1361C12.7589 12.2232 12.71 12.3414 12.71 12.4647V20.8286C12.71 20.9518 12.7589 21.07 12.8461 21.1572C12.9332 21.2443 13.0514 21.2933 13.1746 21.2933H17.3566C17.4798 21.2933 17.598 21.2443 17.6852 21.1572C17.7723 21.07 17.8213 20.9518 17.8213 20.8286V12.4647C17.8213 12.3414 17.7723 12.2232 17.6852 12.1361C17.598 12.049 17.4798 12 17.3566 12H13.1746Z" fill="#9B9B9B"/>
<path fill-rule="evenodd" clip-rule="evenodd" d="M15.9625 14.788H14.5685V13.8586H15.9625V14.788ZM15.9625 16.6466H14.5685V15.7173H15.9625V16.6466ZM15.9625 18.5053H14.5685V17.5759H15.9625V18.5053ZM15.9625 20.3639H14.5685V19.4346H15.9625V20.3639ZM7.13392 6.8887V11.0707H6.20459V6.8887H7.13392Z" fill="#9B9B9B"/>
</svg>
