<svg width="12" height="12" viewBox="0 0 12 12" fill="none" xmlns="http://www.w3.org/2000/svg">
<path d="M3.28838 7.19798C3.11865 7.19798 2.97628 7.14047 2.86127 7.02545C2.74625 6.91044 2.68894 6.76827 2.68934 6.59894C2.68934 6.42922 2.74685 6.28685 2.86187 6.17183C2.97688 6.05682 3.11905 5.99951 3.28838 5.99991C3.4581 5.99991 3.60047 6.05742 3.71549 6.17243C3.8305 6.28745 3.88781 6.42962 3.88741 6.59894C3.88741 6.76867 3.8299 6.91104 3.71489 7.02605C3.59987 7.14107 3.4577 7.19838 3.28838 7.19798ZM5.68451 7.19798C5.51478 7.19798 5.37241 7.14047 5.2574 7.02545C5.14238 6.91044 5.08508 6.76827 5.08548 6.59894C5.08548 6.42922 5.14298 6.28685 5.258 6.17183C5.37301 6.05682 5.51518 5.99951 5.68451 5.99991C5.85423 5.99991 5.9966 6.05742 6.11162 6.17243C6.22663 6.28745 6.28394 6.42962 6.28354 6.59894C6.28354 6.76867 6.22603 6.91104 6.11102 7.02605C5.99601 7.14107 5.85383 7.19838 5.68451 7.19798ZM8.08064 7.19798C7.91091 7.19798 7.76854 7.14047 7.65353 7.02545C7.53851 6.91044 7.48121 6.76827 7.48161 6.59894C7.48161 6.42922 7.53911 6.28685 7.65413 6.17183C7.76914 6.05682 7.91131 5.99951 8.08064 5.99991C8.25037 5.99991 8.39274 6.05742 8.50775 6.17243C8.62276 6.28745 8.68007 6.42962 8.67967 6.59894C8.67967 6.76867 8.62216 6.91104 8.50715 7.02605C8.39214 7.14107 8.24997 7.19838 8.08064 7.19798ZM0.293213 11.9902V1.20765H2.09031V0.00958252H3.28838V1.20765H8.08064V0.00958252H9.27871V1.20765H11.0758V11.9902H0.293213ZM1.49128 10.7922H9.87774V4.80185H1.49128V10.7922ZM1.49128 3.60378H9.87774V2.40571H1.49128V3.60378Z" fill="#9B9B9B"/>
</svg>
