<svg width="17" height="17" viewBox="0 0 17 17" fill="none" xmlns="http://www.w3.org/2000/svg">
<path d="M4.25016 13.4584H6.37516V9.20835H10.6252V13.4584H12.7502V7.08335L8.50016 3.89585L4.25016 7.08335V13.4584ZM4.25016 14.875C3.86058 14.875 3.52696 14.7362 3.24929 14.4585C2.97162 14.1809 2.83303 13.8475 2.8335 13.4584V7.08335C2.8335 6.85905 2.88379 6.64655 2.98437 6.44585C3.08496 6.24516 3.22355 6.07988 3.40016 5.95002L7.65016 2.76252C7.78003 2.66808 7.91579 2.59724 8.05746 2.55002C8.19912 2.5028 8.34669 2.47919 8.50016 2.47919C8.65364 2.47919 8.80121 2.5028 8.94287 2.55002C9.08454 2.59724 9.2203 2.66808 9.35016 2.76252L13.6002 5.95002C13.7772 6.07988 13.9161 6.24516 14.0167 6.44585C14.1172 6.64655 14.1673 6.85905 14.1668 7.08335V13.4584C14.1668 13.8479 14.028 14.1816 13.7503 14.4592C13.4727 14.7369 13.1393 14.8755 12.7502 14.875H9.2085V10.625H7.79183V14.875H4.25016Z" fill="#FFB901"/>
</svg>
