<svg width="14" height="22" viewBox="0 0 14 22" fill="none" xmlns="http://www.w3.org/2000/svg">
<path d="M13.0776 11C13.0776 11.25 13.0308 11.4925 12.937 11.7275C12.8433 11.9625 12.7183 12.1575 12.562 12.3125L3.93701 20.9375C3.59326 21.2813 3.15576 21.4531 2.62451 21.4531C2.09326 21.4531 1.65576 21.2813 1.31201 20.9375C0.968261 20.5938 0.796387 20.1563 0.796387 19.625C0.796387 19.0938 0.968261 18.6562 1.31201 18.3125L8.62451 11L1.31201 3.6875C0.968261 3.34375 0.796387 2.90625 0.796387 2.375C0.796387 1.84375 0.968261 1.40625 1.31201 1.0625C1.65576 0.71875 2.09326 0.546873 2.62451 0.546873C3.15576 0.546873 3.59326 0.71875 3.93701 1.0625L12.562 9.6875C12.7495 9.875 12.8826 10.0781 12.9614 10.2969C13.0401 10.5156 13.0789 10.75 13.0776 11Z" fill="black"/>
</svg>
